<svg xmlns="http://www.w3.org/2000/svg" width="300" height="400" viewBox="0 0 300 400">
  <!-- Background -->
  <rect width="300" height="400" fill="#ffffff"/>

  <!-- Sidebar background -->
  <rect width="105" height="400" fill="#1e293b"/>

  <!-- Photo placeholder circle -->
  <circle cx="52" cy="48" r="22" fill="#ffffff" fill-opacity="0.15" stroke="#ffffff" stroke-width="2"/>
  <circle cx="52" cy="48" r="14" fill="#ffffff" fill-opacity="0.25"/>

  <!-- Name line (white) -->
  <rect x="16" y="78" width="73" height="5" rx="2" fill="#ffffff" fill-opacity="0.85"/>
  <!-- Title line (white/dim) -->
  <rect x="22" y="88" width="62" height="3" rx="1.5" fill="#ffffff" fill-opacity="0.5"/>

  <!-- Amber divider -->
  <rect x="32" y="97" width="40" height="2" rx="1" fill="#f59e0b"/>

  <!-- Contact lines -->
  <rect x="12" y="105" width="80" height="2.5" rx="1.25" fill="#ffffff" fill-opacity="0.6"/>
  <rect x="18" y="112" width="68" height="2.5" rx="1.25" fill="#ffffff" fill-opacity="0.6"/>
  <rect x="14" y="119" width="76" height="2.5" rx="1.25" fill="#ffffff" fill-opacity="0.6"/>
  <rect x="20" y="126" width="64" height="2.5" rx="1.25" fill="#ffffff" fill-opacity="0.6"/>

  <!-- Amber divider 2 -->
  <rect x="32" y="136" width="40" height="2" rx="1" fill="#f59e0b"/>

  <!-- KENNTNISSE label (amber) -->
  <rect x="12" y="144" width="50" height="3" rx="1.5" fill="#f59e0b"/>

  <!-- Skill lines (white) -->
  <rect x="12" y="152" width="72" height="2.5" rx="1.25" fill="#ffffff" fill-opacity="0.75"/>
  <rect x="12" y="159" width="60" height="2.5" rx="1.25" fill="#ffffff" fill-opacity="0.75"/>
  <rect x="12" y="166" width="68" height="2.5" rx="1.25" fill="#ffffff" fill-opacity="0.75"/>
  <rect x="12" y="173" width="55" height="2.5" rx="1.25" fill="#ffffff" fill-opacity="0.75"/>
  <rect x="12" y="180" width="64" height="2.5" rx="1.25" fill="#ffffff" fill-opacity="0.75"/>
  <rect x="12" y="187" width="50" height="2.5" rx="1.25" fill="#ffffff" fill-opacity="0.75"/>

  <!-- Main area -->
  <!-- Section 1 title (amber) -->
  <rect x="120" y="30" width="60" height="4" rx="2" fill="#f59e0b"/>
  <!-- Section 1 underline -->
  <rect x="120" y="38" width="155" height="1" fill="#f59e0b" fill-opacity="0.5"/>
  <!-- Entry rows -->
  <rect x="120" y="45" width="90" height="3" rx="1.5" fill="#374151"/>
  <rect x="245" y="45" width="30" height="3" rx="1.5" fill="#9ca3af"/>
  <rect x="120" y="52" width="70" height="2.5" rx="1.25" fill="#9ca3af"/>
  <rect x="120" y="58" width="155" height="2" rx="1" fill="#6b7280" fill-opacity="0.6"/>
  <rect x="120" y="64" width="140" height="2" rx="1" fill="#6b7280" fill-opacity="0.6"/>

  <rect x="120" y="73" width="80" height="3" rx="1.5" fill="#374151"/>
  <rect x="240" y="73" width="35" height="3" rx="1.5" fill="#9ca3af"/>
  <rect x="120" y="80" width="65" height="2.5" rx="1.25" fill="#9ca3af"/>
  <rect x="120" y="86" width="155" height="2" rx="1" fill="#6b7280" fill-opacity="0.6"/>

  <!-- Section 2 title (amber) -->
  <rect x="120" y="102" width="70" height="4" rx="2" fill="#f59e0b"/>
  <!-- Section 2 underline -->
  <rect x="120" y="110" width="155" height="1" fill="#f59e0b" fill-opacity="0.5"/>
  <!-- Entry rows -->
  <rect x="120" y="117" width="85" height="3" rx="1.5" fill="#374151"/>
  <rect x="248" y="117" width="27" height="3" rx="1.5" fill="#9ca3af"/>
  <rect x="120" y="124" width="72" height="2.5" rx="1.25" fill="#9ca3af"/>
  <rect x="120" y="130" width="155" height="2" rx="1" fill="#6b7280" fill-opacity="0.6"/>
  <rect x="120" y="136" width="130" height="2" rx="1" fill="#6b7280" fill-opacity="0.6"/>

  <rect x="120" y="145" width="75" height="3" rx="1.5" fill="#374151"/>
  <rect x="243" y="145" width="32" height="3" rx="1.5" fill="#9ca3af"/>
  <rect x="120" y="152" width="68" height="2.5" rx="1.25" fill="#9ca3af"/>

  <!-- Section 3 title (amber) -->
  <rect x="120" y="168" width="55" height="4" rx="2" fill="#f59e0b"/>
  <!-- Section 3 underline -->
  <rect x="120" y="176" width="155" height="1" fill="#f59e0b" fill-opacity="0.5"/>
  <!-- Entry rows -->
  <rect x="120" y="183" width="88" height="3" rx="1.5" fill="#374151"/>
  <rect x="246" y="183" width="29" height="3" rx="1.5" fill="#9ca3af"/>
  <rect x="120" y="190" width="74" height="2.5" rx="1.25" fill="#9ca3af"/>
  <rect x="120" y="196" width="155" height="2" rx="1" fill="#6b7280" fill-opacity="0.6"/>
  <rect x="120" y="202" width="145" height="2" rx="1" fill="#6b7280" fill-opacity="0.6"/>

  <rect x="120" y="211" width="80" height="3" rx="1.5" fill="#374151"/>
  <rect x="244" y="211" width="31" height="3" rx="1.5" fill="#9ca3af"/>
  <rect x="120" y="218" width="66" height="2.5" rx="1.25" fill="#9ca3af"/>
  <rect x="120" y="224" width="155" height="2" rx="1" fill="#6b7280" fill-opacity="0.6"/>

  <!-- Section 4 title (amber) -->
  <rect x="120" y="240" width="65" height="4" rx="2" fill="#f59e0b"/>
  <!-- Section 4 underline -->
  <rect x="120" y="248" width="155" height="1" fill="#f59e0b" fill-opacity="0.5"/>
  <!-- Entry rows -->
  <rect x="120" y="255" width="92" height="3" rx="1.5" fill="#374151"/>
  <rect x="247" y="255" width="28" height="3" rx="1.5" fill="#9ca3af"/>
  <rect x="120" y="262" width="78" height="2.5" rx="1.25" fill="#9ca3af"/>

  <rect x="120" y="271" width="82" height="3" rx="1.5" fill="#374151"/>
  <rect x="245" y="271" width="30" height="3" rx="1.5" fill="#9ca3af"/>
  <rect x="120" y="278" width="70" height="2.5" rx="1.25" fill="#9ca3af"/>
  <rect x="120" y="284" width="155" height="2" rx="1" fill="#6b7280" fill-opacity="0.6"/>
</svg>
